<?xml version="1.0" encoding="UTF-8"?>
<svg id="Layer_2" data-name="Layer 2" xmlns="http://www.w3.org/2000/svg" viewBox="0 0 810.85 169.91">
  <defs>
    <style>
      .cls-1 {
        fill: #fff;
      }

      .cls-2 {
        fill: none;
        stroke: #fff;
        stroke-miterlimit: 10;
        stroke-width: 16.41px;
      }
    </style>
  </defs>
  <g id="Layer_1-2" data-name="Layer 1">
    <g>
      <g>
        <g>
          <path class="cls-1" d="M302.35,131.84l-11.27,38.02h-7.06l-7.99-28.77-8.48,28.77-7,.05-10.78-38.07h6.62l7.88,30.96,8.53-30.96h7l7.93,30.8,7.93-30.8h6.67Z"/>
          <path class="cls-1" d="M323.08,136.87v11.16h13.13v5.09h-13.13v11.65h14.77v5.09h-21v-38.07h21v5.09h-14.77Z"/>
          <path class="cls-1" d="M380.4,153.56c1.42,1.79,2.13,3.81,2.13,6.07,0,1.93-.5,3.67-1.5,5.22-1,1.55-2.45,2.77-4.35,3.67-1.9,.89-4.1,1.34-6.62,1.34h-15.21v-38.02h14.5c2.59,0,4.81,.44,6.67,1.31s3.26,2.05,4.21,3.53c.95,1.48,1.42,3.13,1.42,4.95,0,2.19-.58,4.01-1.75,5.47-1.17,1.46-2.73,2.53-4.7,3.23,2.04,.37,3.77,1.44,5.2,3.23Zm-19.31-5.74h7.71c2.04,0,3.64-.47,4.79-1.4,1.15-.93,1.72-2.27,1.72-4.02s-.58-3.05-1.72-4.02c-1.15-.97-2.74-1.45-4.79-1.45h-7.71v10.89Zm13.4,15.42c1.2-1.02,1.8-2.44,1.8-4.27s-.64-3.34-1.91-4.43c-1.28-1.09-2.97-1.64-5.09-1.64h-8.2v11.87h8.42c2.11,0,3.77-.51,4.98-1.53Z"/>
          <path class="cls-1" d="M424.21,153.56c1.42,1.79,2.13,3.81,2.13,6.07,0,1.93-.5,3.67-1.5,5.22-1,1.55-2.45,2.77-4.35,3.67-1.9,.89-4.1,1.34-6.62,1.34h-15.21v-38.02h14.5c2.59,0,4.81,.44,6.67,1.31s3.26,2.05,4.21,3.53,1.42,3.13,1.42,4.95c0,2.19-.58,4.01-1.75,5.47-1.17,1.46-2.73,2.53-4.7,3.23,2.04,.37,3.77,1.44,5.2,3.23Zm-19.31-5.74h7.71c2.04,0,3.64-.47,4.79-1.4,1.15-.93,1.72-2.27,1.72-4.02s-.58-3.05-1.72-4.02c-1.15-.97-2.74-1.45-4.79-1.45h-7.71v10.89Zm13.4,15.42c1.2-1.02,1.8-2.44,1.8-4.27s-.64-3.34-1.91-4.43c-1.28-1.09-2.97-1.64-5.09-1.64h-8.2v11.87h8.42c2.11,0,3.77-.51,4.98-1.53Z"/>
          <path class="cls-1" d="M470.65,131.84l-12.58,24.23v13.78h-6.24v-13.78l-12.63-24.23h6.95l8.81,18.65,8.81-18.65h6.89Z"/>
          <path class="cls-1" d="M504.68,169.86l-8.75-15.21h-4.76v15.21h-6.24v-38.02h13.13c2.92,0,5.39,.51,7.41,1.53,2.02,1.02,3.54,2.39,4.54,4.1,1,1.71,1.5,3.63,1.5,5.74,0,2.48-.72,4.73-2.16,6.76-1.44,2.02-3.66,3.4-6.65,4.13l9.41,15.75h-7.44Zm-13.51-20.18h6.89c2.33,0,4.09-.58,5.28-1.75,1.18-1.17,1.78-2.73,1.78-4.7s-.58-3.51-1.75-4.62c-1.17-1.11-2.94-1.67-5.31-1.67h-6.89v12.75Z"/>
          <path class="cls-1" d="M551.77,162.09h-15.92l-2.73,7.77h-6.51l13.62-38.07h7.22l13.62,38.07h-6.56l-2.73-7.77Zm-1.75-5.09l-6.18-17.67-6.24,17.67h12.42Z"/>
        </g>
        <path class="cls-1" d="M543.84,129.23c-2.34,0-4.25-1.91-4.25-4.25s1.91-4.25,4.25-4.25,4.25,1.91,4.25,4.25-1.91,4.25-4.25,4.25Zm0-6.68c-1.34,0-2.43,1.09-2.43,2.43s1.09,2.43,2.43,2.43,2.43-1.09,2.43-2.43-1.09-2.43-2.43-2.43Z"/>
      </g>
      <g>
        <g>
          <path class="cls-1" d="M16.53,91.08c-5.06-2.16-9.05-5.27-11.99-9.33C1.6,77.69,.09,72.89,0,67.36H19.45c.26,3.72,1.58,6.66,3.95,8.82,2.38,2.16,5.64,3.24,9.79,3.24s7.56-1.01,9.98-3.05c2.42-2.03,3.63-4.69,3.63-7.97,0-2.68-.82-4.88-2.46-6.61-1.64-1.73-3.69-3.09-6.16-4.08-2.46-.99-5.86-2.09-10.18-3.31-5.88-1.73-10.65-3.44-14.32-5.12-3.67-1.69-6.83-4.23-9.46-7.65-2.64-3.41-3.95-7.97-3.95-13.68,0-5.36,1.34-10.02,4.02-14,2.68-3.97,6.44-7.02,11.28-9.14,4.84-2.12,10.37-3.18,16.59-3.18,9.33,0,16.92,2.27,22.75,6.81,5.83,4.54,9.05,10.87,9.66,18.99h-19.96c-.17-3.11-1.49-5.68-3.95-7.71-2.46-2.03-5.73-3.05-9.79-3.05-3.55,0-6.37,.91-8.49,2.72-2.12,1.82-3.18,4.45-3.18,7.91,0,2.42,.8,4.43,2.4,6.03,1.6,1.6,3.59,2.9,5.96,3.89,2.38,.99,5.72,2.14,10.05,3.43,5.88,1.73,10.67,3.46,14.39,5.19,3.72,1.73,6.91,4.32,9.59,7.78,2.68,3.46,4.02,7.99,4.02,13.61,0,4.84-1.25,9.33-3.76,13.48-2.51,4.15-6.18,7.45-11.02,9.92-4.84,2.46-10.59,3.69-17.24,3.69-6.31,0-11.99-1.08-17.05-3.24Z"/>
          <path class="cls-1" d="M99.43,17.58v22.69h30.46v14.39h-30.46v23.98h34.35v14.78h-52.5V2.8h52.5v14.78h-34.35Z"/>
          <path class="cls-1" d="M297.18,91.08c-5.06-2.16-9.05-5.27-11.99-9.33-2.94-4.06-4.45-8.86-4.54-14.39h19.45c.26,3.72,1.58,6.66,3.95,8.82,2.38,2.16,5.64,3.24,9.79,3.24s7.56-1.01,9.98-3.05c2.42-2.03,3.63-4.69,3.63-7.97,0-2.68-.82-4.88-2.46-6.61-1.64-1.73-3.69-3.09-6.16-4.08-2.46-.99-5.86-2.09-10.18-3.31-5.88-1.73-10.65-3.44-14.32-5.12-3.67-1.69-6.83-4.23-9.46-7.65-2.64-3.41-3.95-7.97-3.95-13.68,0-5.36,1.34-10.02,4.02-14,2.68-3.97,6.44-7.02,11.28-9.14,4.84-2.12,10.37-3.18,16.59-3.18,9.33,0,16.92,2.27,22.75,6.81,5.83,4.54,9.05,10.87,9.66,18.99h-19.96c-.17-3.11-1.49-5.68-3.95-7.71-2.46-2.03-5.73-3.05-9.79-3.05-3.55,0-6.37,.91-8.49,2.72-2.12,1.82-3.18,4.45-3.18,7.91,0,2.42,.8,4.43,2.4,6.03,1.6,1.6,3.59,2.9,5.96,3.89,2.38,.99,5.72,2.14,10.05,3.43,5.88,1.73,10.67,3.46,14.39,5.19,3.72,1.73,6.91,4.32,9.59,7.78,2.68,3.46,4.02,7.99,4.02,13.61,0,4.84-1.25,9.33-3.76,13.48-2.51,4.15-6.18,7.45-11.02,9.92-4.84,2.46-10.59,3.69-17.24,3.69-6.31,0-11.99-1.08-17.05-3.24Z"/>
          <path class="cls-1" d="M432.49,8.5c7.22,3.72,12.79,9.01,16.72,15.88,3.93,6.87,5.9,14.84,5.9,23.92s-1.97,17-5.9,23.79c-3.93,6.79-9.51,12.04-16.72,15.75-7.22,3.72-15.58,5.57-25.08,5.57h-31.63V2.93h31.63c9.51,0,17.87,1.86,25.08,5.57Zm-3.69,61.71c5.19-5.19,7.78-12.49,7.78-21.91s-2.59-16.79-7.78-22.1c-5.18-5.31-12.53-7.97-22.04-7.97h-12.83v59.76h12.83c9.51,0,16.85-2.59,22.04-7.78Z"/>
          <path class="cls-1" d="M483.17,17.58v22.69h30.46v14.39h-30.46v23.98h34.35v14.78h-52.5V2.8h52.5v14.78h-34.35Z"/>
          <path class="cls-1" d="M544.15,91.08c-5.06-2.16-9.05-5.27-11.99-9.33-2.94-4.06-4.45-8.86-4.54-14.39h19.45c.26,3.72,1.58,6.66,3.95,8.82,2.38,2.16,5.64,3.24,9.79,3.24s7.56-1.01,9.98-3.05c2.42-2.03,3.63-4.69,3.63-7.97,0-2.68-.82-4.88-2.46-6.61-1.64-1.73-3.69-3.09-6.16-4.08-2.46-.99-5.86-2.09-10.18-3.31-5.88-1.73-10.65-3.44-14.32-5.12-3.67-1.69-6.83-4.23-9.46-7.65-2.64-3.41-3.95-7.97-3.95-13.68,0-5.36,1.34-10.02,4.02-14,2.68-3.97,6.44-7.02,11.28-9.14,4.84-2.12,10.37-3.18,16.59-3.18,9.33,0,16.92,2.27,22.75,6.81,5.83,4.54,9.05,10.87,9.66,18.99h-19.96c-.17-3.11-1.49-5.68-3.95-7.71-2.46-2.03-5.73-3.05-9.79-3.05-3.55,0-6.37,.91-8.49,2.72-2.12,1.82-3.18,4.45-3.18,7.91,0,2.42,.8,4.43,2.4,6.03,1.6,1.6,3.59,2.9,5.96,3.89,2.38,.99,5.72,2.14,10.05,3.43,5.88,1.73,10.67,3.46,14.39,5.19,3.72,1.73,6.91,4.32,9.59,7.78,2.68,3.46,4.02,7.99,4.02,13.61,0,4.84-1.25,9.33-3.76,13.48-2.51,4.15-6.18,7.45-11.02,9.92-4.84,2.46-10.59,3.69-17.24,3.69-6.31,0-11.99-1.08-17.05-3.24Z"/>
          <path class="cls-1" d="M622.08,2.93V93.42h-18.15V2.93h18.15Z"/>
          <path class="cls-1" d="M698.9,30.15c-2.07-3.8-4.93-6.7-8.56-8.69-3.63-1.99-7.87-2.98-12.7-2.98-5.36,0-10.11,1.21-14.26,3.63-4.15,2.42-7.39,5.88-9.72,10.37-2.33,4.49-3.5,9.68-3.5,15.56s1.19,11.32,3.57,15.82c2.38,4.49,5.68,7.95,9.92,10.37,4.23,2.42,9.16,3.63,14.78,3.63,6.91,0,12.57-1.83,16.98-5.51,4.41-3.67,7.3-8.79,8.69-15.36h-31.11v-13.87h49v15.82c-1.21,6.31-3.8,12.14-7.78,17.5-3.98,5.36-9.1,9.66-15.36,12.9-6.27,3.24-13.29,4.86-21.07,4.86-8.73,0-16.62-1.96-23.66-5.9-7.05-3.93-12.58-9.4-16.59-16.4-4.02-7-6.03-14.95-6.03-23.85s2.01-16.87,6.03-23.92c4.02-7.04,9.55-12.53,16.59-16.46,7.04-3.93,14.89-5.9,23.53-5.9,10.2,0,19.06,2.48,26.58,7.45,7.52,4.97,12.7,11.95,15.56,20.94h-20.87Z"/>
          <path class="cls-1" d="M810.85,93.42h-18.15l-41.09-62.1v62.1h-18.15V2.8h18.15l41.09,62.23V2.8h18.15V93.42Z"/>
        </g>
        <g>
          <path class="cls-2" d="M148.38,49.27c9.35-24.66,33.11-41.06,59.48-41.06s50.13,16.4,59.48,41.06c-10.65,23.21-33.95,38.16-59.48,38.16s-48.84-14.95-59.48-38.16Z"/>
          <circle class="cls-1" cx="207.86" cy="47.84" r="18.77"/>
        </g>
      </g>
    </g>
  </g>
</svg>